<svg width="380" height="380" viewBox="0 0 380 380" fill="none" xmlns="http://www.w3.org/2000/svg">
<path d="M104.02 163.307C104.02 159.752 104.532 156.437 105.558 153.36C106.651 150.216 108.087 147.481 109.864 145.157C111.71 142.765 113.829 140.885 116.222 139.518C118.614 138.15 121.178 137.467 123.912 137.467H128.526V246.466H176.002V125.88H84.127C84.332 123.487 84.9473 121.231 85.9727 119.112C87.0664 116.993 88.3994 115.147 89.9717 113.575C91.6123 112.003 93.458 110.772 95.5088 109.884C97.5596 108.995 99.7471 108.551 102.071 108.551H180.821C183.487 108.551 186.017 109.234 188.409 110.602C190.802 111.9 192.853 113.746 194.562 116.139C196.339 118.463 197.74 121.231 198.766 124.444C199.791 127.589 200.304 130.973 200.304 134.596V238.16C200.304 241.715 199.791 245.064 198.766 248.209C197.74 251.354 196.339 254.088 194.562 256.412C192.853 258.736 190.802 260.582 188.409 261.949C186.085 263.316 183.59 264 180.924 264H104.122L104.02 163.307Z" fill="white"/>
<path d="M178.559 108.551H203.168V185.763H223.573L250.028 108.551H276.073L246.85 185.763H252.079C254.745 185.763 257.172 186.446 259.359 187.813C261.615 189.181 263.529 191.026 265.102 193.351C266.674 195.675 267.904 198.409 268.793 201.554C269.682 204.63 270.126 207.945 270.126 211.5V246.363H297.401C297.128 248.824 296.444 251.114 295.351 253.233C294.325 255.353 292.992 257.232 291.352 258.873C289.779 260.445 287.968 261.71 285.917 262.667C283.866 263.556 281.713 264 279.457 264H264.999C262.333 264 259.804 263.316 257.411 261.949C255.087 260.582 253.036 258.736 251.259 256.412C249.481 254.088 248.08 251.354 247.055 248.209C246.029 245.064 245.517 241.715 245.517 238.16V202.989H203.168V264H178.559V108.551Z" fill="white"/>
<circle cx="190" cy="190" r="162.5" stroke="white" stroke-width="25"/>
</svg>
